<svg width="136" height="57" viewBox="0 0 136 57" fill="none" xmlns="http://www.w3.org/2000/svg">
<path d="M15.9179 8.36923V0.410254H23.8769V48.1641H39.7949V56.1231H0V48.1641H15.9179V16.3282H0V8.36923H15.9179ZM63.6718 32.2462V24.2872H71.6308V32.2462H63.6718ZM55.7128 8.36923V0.410254H79.5897V8.36923H87.5487V48.1641H79.5897V56.1231H55.7128V48.1641H47.7538V8.36923H55.7128ZM79.5897 16.3282V8.36923H55.7128V32.2462H63.6718V40.2051H55.7128V48.1641H79.5897V24.2872H71.6308V16.3282H79.5897Z" fill="white"/>
<path d="M103.467 8.36923V0.410254H111.426V8.36923H119.385V16.3282H127.344V8.36923H135.303V16.3282H127.344V24.2872H119.385V32.2462H127.344V40.2051H135.303V48.1641H127.344V56.1231H119.385V48.1641H111.426V40.2051H103.467V48.1641H95.5077V40.2051H103.467V32.2462H111.426V24.2872H103.467V16.3282H95.5077V8.36923H103.467ZM111.426 16.3282V8.36923H103.467V16.3282H111.426V24.2872H119.385V16.3282H111.426ZM119.385 40.2051V32.2462H111.426V40.2051H119.385V48.1641H127.344V40.2051H119.385Z" fill="#FFC804"/>
</svg>
