<svg width="323" height="375" viewBox="0 0 323 375" fill="none" xmlns="http://www.w3.org/2000/svg">
<path d="M298 125H285.5V137.5H273V150H260.5V162.5H248V175H235.5V187.5H223V200H210.5V212.5H198V225H210.5V212.5H223V200H235.5V187.5H248V175H260.5V162.5H273V150H285.5V137.5H298V125ZM273 187.5H298V225H260.5V187.5H273ZM285.5 212.5V200H273V212.5H285.5ZM210.5 125H235.5V162.5H198V125H210.5ZM223 150V137.5H210.5V150H223Z" fill="#7867B1"/>
<path d="M0 156.25V62.875H155.625V94H31.125V125.125H124.5V156.25H155.625V249.625H124.5V280.75H31.125V249.625H0V218.5H31.125V249.625H124.5V156.25H0Z" fill="white"/>
</svg>
