<svg width="150" height="165" viewBox="0 0 150 165" fill="none" xmlns="http://www.w3.org/2000/svg">
<path d="M56.25 12.5H93.75V25H56.25V12.5ZM93.75 37.5V25H106.25V37.5H131.25V137.5H18.75V37.5H43.75V25H56.25V37.5H93.75ZM93.75 50H56.25V62.5H43.75V50H31.25V125H118.75V50H106.25V62.5H93.75V50Z" fill="#7867B1"/>
<path d="M12 155.154V152.692H13.2308V155.154H14.4615V157.615H15.6923V155.154H16.9231V152.692H18.1538V155.154H16.9231V157.615H15.6923V160.077H14.4615V161.308H13.2308V160.077H12V158.846H13.2308V160.077H14.4615V157.615H13.2308V155.154H12ZM19.3846 153.923V152.692H25.5385V153.923H23.0769V161.308H21.8462V153.923H19.3846ZM26.7692 161.308V152.692H32.9231V153.923H28V156.385H30.4615V157.615H28V160.077H32.9231V161.308H26.7692ZM34.1538 161.308V152.692H35.3846V160.077H36.6154V152.692H37.8462V160.077H39.0769V152.692H40.3077V161.308H34.1538ZM41.5385 161.308V152.692H42.7692V157.615H44V156.385H45.2308V155.154H46.4615V152.692H47.6923V161.308H46.4615V156.385H45.2308V157.615H44V158.846H42.7692V161.308H41.5385ZM48.9231 153.923V152.692H55.0769V153.923H52.6154V161.308H51.3846V153.923H48.9231ZM56.3077 161.308V152.692H62.4615V153.923H57.5385V156.385H60V157.615H57.5385V160.077H62.4615V161.308H56.3077ZM64.9231 160.077V152.692H69.8462V161.308H68.6154V153.923H66.1538V160.077H64.9231V161.308H63.6923V160.077H64.9231ZM71.0769 161.308V152.692H72.3077V156.385H76V157.615H77.2308V160.077H76V161.308H71.0769ZM76 160.077V157.615H72.3077V160.077H76ZM78.4615 161.308V152.692H79.6923V156.385H83.3846V152.692H84.6154V161.308H83.3846V157.615H79.6923V161.308H78.4615ZM90.7692 161.308V152.692H92V161.308H90.7692ZM85.8462 161.308V152.692H87.0769V156.385H88.3077V157.615H89.5385V160.077H88.3077V161.308H85.8462ZM88.3077 160.077V157.615H87.0769V160.077H88.3077ZM93.2308 151.462V150.231H94.4615V151.462H93.2308ZM93.2308 161.308V152.692H94.4615V151.462H98.1538V152.692H94.4615V157.615H95.6923V158.846H94.4615V161.308H93.2308ZM98.1538 151.462V150.231H99.3846V151.462H98.1538ZM98.1538 152.692H99.3846V161.308H98.1538V156.385H96.9231V157.615H95.6923V156.385H96.9231V155.154H98.1538V152.692ZM108 161.308V152.692H114.154V161.308H112.923V153.923H109.231V161.308H108ZM115.385 161.308V152.692H120.308V153.923H121.538V156.385H120.308V157.615H116.615V161.308H115.385ZM120.308 156.385V153.923H116.615V156.385H120.308ZM122.769 161.308V152.692H124V157.615H125.231V156.385H126.462V155.154H127.692V152.692H128.923V161.308H127.692V156.385H126.462V157.615H125.231V158.846H124V161.308H122.769ZM131.385 153.923V152.692H135.077V153.923H136.308V156.385H135.077V157.615H136.308V160.077H135.077V161.308H131.385V160.077H130.154V158.846H131.385V160.077H135.077V157.615H132.615V156.385H135.077V153.923H131.385V155.154H130.154V153.923H131.385Z" fill="white"/>
</svg>
