<svg width="154" height="218" viewBox="0 0 154 218" fill="none" xmlns="http://www.w3.org/2000/svg">
<path d="M11.2641 36.709C10.1402 35.0134 9.5987 32.9982 9.72132 30.9677C9.84394 28.9372 10.624 27.0017 11.9437 25.4537C14.6719 22.2808 16.2553 18.2835 16.4401 14.1031C16.625 9.92269 15.4004 5.80131 12.963 2.4L11.2491 0H0.533203L0 0.380859L5.33408 7.84863C6.55037 9.54582 7.16139 11.6023 7.06917 13.6883C6.97694 15.7743 6.1868 17.7688 4.82549 19.3521C2.18091 22.4545 0.617726 26.3333 0.372017 30.4025C0.126308 34.4718 1.21143 38.5105 3.46348 41.9086L5.21191 44.5312H16.4795L11.2641 36.709ZM32.3578 36.709C31.234 35.0134 30.6925 32.9982 30.8151 30.9677C30.9377 28.9372 31.7178 27.0017 33.0375 25.4537C35.7656 22.2808 37.3491 18.2835 37.5339 14.1031C37.7187 9.92269 36.4942 5.80131 34.0567 2.4L32.3429 0H21.627L21.0938 0.380859L26.4278 7.84863C27.6441 9.54582 28.2551 11.6023 28.1629 13.6883C28.0707 15.7743 27.2806 17.7688 25.9192 19.3521C23.2747 22.4545 21.7115 26.3333 21.4658 30.4025C21.2201 34.4718 22.3052 38.5105 24.5572 41.9086L26.3057 44.5312H37.5732L32.3578 36.709Z" fill="white"/>
<rect y="80" width="154" height="138" fill="white"/>
<rect y="49" width="41" height="138" fill="white"/>
<path d="M68.3333 173.5V165.333H76.5V173.5H68.3333ZM60.1667 124.5V116.333H84.6667V124.5H92.8333V140.833H84.6667V149H76.5V157.167H68.3333V149H76.5V140.833H84.6667V124.5H60.1667V132.667H52V124.5H60.1667Z" fill="#141414"/>
</svg>
