<svg width="337" height="337" viewBox="0 0 337 337" fill="none" xmlns="http://www.w3.org/2000/svg">
<path d="M211.679 42.5469C208.081 51.4424 201.909 59.0611 193.954 64.427C185.999 69.793 176.623 72.6619 167.027 72.6663C157.431 72.6619 148.055 69.793 140.1 64.427C132.145 59.0611 125.973 51.4424 122.374 42.5469L13.0391 88.8844L43.7903 161.382L77.5956 147.059V294.876H257.659V147.596L290.232 161.413L320.983 88.916L211.679 42.5469Z" fill="white"/>
<path d="M154.667 226V211.667H169V226H154.667ZM140.333 140V125.667H183.333V140H197.667V168.667H183.333V183H169V197.333H154.667V183H169V168.667H183.333V140H140.333V154.333H126V140H140.333Z" fill="#141414"/>
</svg>
