<svg width="6797" height="1409" viewBox="0 0 6797 1409" fill="none" xmlns="http://www.w3.org/2000/svg">
<path d="M6595.54 201.215V4.53087C6595.54 3.41261 6595.99 2.34016 6596.78 1.54943C6597.57 0.758698 6598.64 0.314453 6599.76 0.314453H6792.42C6793.49 0.314453 6794.51 0.737778 6795.27 1.4913C6796.02 2.24482 6796.44 3.2668 6796.44 4.33245V198.734C6796.44 199.06 6796.38 199.383 6796.25 199.684C6796.13 199.985 6795.95 200.258 6795.72 200.488C6795.49 200.719 6795.21 200.901 6794.91 201.026C6794.61 201.151 6794.29 201.215 6793.96 201.215H6595.54Z" fill="white"/>
<path d="M197.737 202.802L4.37617 203.645C3.87458 203.645 3.37799 203.546 2.91457 203.354C2.45116 203.162 2.03004 202.881 1.67536 202.526C1.32068 202.172 1.0394 201.751 0.847446 201.287C0.655494 200.824 0.556641 200.327 0.556641 199.826V5.77074C0.556641 5.37988 0.633687 4.99287 0.78326 4.63177C0.932833 4.27067 1.15208 3.94255 1.42845 3.66618C1.70483 3.3898 2.03287 3.17056 2.39397 3.02099C2.75507 2.87141 3.14212 2.79444 3.53297 2.79444L198.084 2.49683C198.742 2.49683 199.372 2.76337 199.838 3.23781C200.303 3.71225 200.564 4.35569 200.564 5.02665L201.804 195.163C201.804 196.137 201.996 197.103 202.368 198.003C202.74 198.903 203.285 199.72 203.972 200.407C204.659 201.094 205.474 201.637 206.371 202.005C207.267 202.374 208.227 202.56 209.195 202.554C468.596 200.57 723.136 200.751 972.815 203.099C982.802 203.199 991.995 202.67 1000.39 201.512C1000.98 201.434 1001.57 201.482 1002.13 201.65C1002.69 201.819 1003.21 202.105 1003.65 202.49C1004.09 202.875 1004.44 203.35 1004.69 203.883C1004.93 204.416 1005.06 204.994 1005.06 205.58V400.577C1005.06 401.314 1004.77 402.02 1004.24 402.541C1003.72 403.062 1003.02 403.355 1002.28 403.355L726.278 403.652C725.633 403.652 725.015 403.919 724.559 404.393C724.103 404.868 723.847 405.511 723.847 406.182L722.309 1403.84C722.309 1404.57 722.011 1405.28 721.481 1405.8C720.951 1406.32 720.232 1406.62 719.482 1406.62H525.824C524.982 1406.62 524.174 1406.28 523.579 1405.67C522.984 1405.07 522.649 1404.25 522.649 1403.39L521.112 406.133C521.112 405.475 520.85 404.844 520.385 404.379C519.92 403.914 519.289 403.652 518.631 403.652L204.235 403.355C203.498 403.355 202.792 403.062 202.271 402.541C201.75 402.02 201.457 401.314 201.457 400.577V206.473C201.457 205.499 201.065 204.565 200.367 203.877C199.67 203.189 198.723 202.802 197.737 202.802Z" fill="white"/>
<path d="M5387.31 904.662L4992.36 904.365C4991.99 904.365 4991.63 904.437 4991.3 904.576C4990.96 904.716 4990.65 904.921 4990.4 905.178C4990.14 905.436 4989.93 905.743 4989.79 906.08C4989.65 906.417 4989.58 906.778 4989.58 907.143V1404.14C4989.58 1404.79 4989.32 1405.42 4988.85 1405.89C4988.39 1406.35 4987.76 1406.62 4987.1 1406.62L4791.51 1406.32C4790.84 1406.32 4790.19 1406.06 4789.72 1405.59C4789.25 1405.13 4788.98 1404.5 4788.98 1403.84C4787.92 1326.88 4787.41 1213.3 4787.44 1063.1C4787.57 621.682 4787.89 335.528 4788.38 204.637C4788.38 203.974 4788.65 203.338 4789.12 202.865C4789.59 202.392 4790.24 202.12 4790.91 202.107C5066.22 199.527 5325.08 199.23 5567.48 201.214C5576.54 201.28 5583.88 201.049 5589.5 200.519C5589.82 200.492 5590.14 200.529 5590.44 200.629C5590.74 200.729 5591.02 200.889 5591.25 201.099C5591.48 201.309 5591.67 201.564 5591.8 201.849C5591.92 202.134 5591.99 202.441 5591.98 202.752L5591.34 1403.19C5591.34 1403.86 5591.08 1404.51 5590.61 1404.98C5590.15 1405.46 5589.52 1405.72 5588.86 1405.72L5392.82 1406.57C5392.47 1406.57 5392.12 1406.51 5391.8 1406.38C5391.47 1406.24 5391.18 1406.05 5390.93 1405.8C5390.68 1405.55 5390.48 1405.25 5390.35 1404.92C5390.21 1404.6 5390.14 1404.24 5390.14 1403.89L5389.84 907.143C5389.84 906.485 5389.58 905.854 5389.1 905.389C5388.63 904.924 5387.99 904.662 5387.31 904.662ZM5390.19 404.793C5390.19 404.082 5389.91 403.401 5389.41 402.899C5388.9 402.396 5388.22 402.114 5387.51 402.114H4992.26C4991.55 402.114 4990.87 402.396 4990.37 402.899C4989.86 403.401 4989.58 404.082 4989.58 404.793V699.546C4989.58 700.256 4989.86 700.938 4990.37 701.44C4990.87 701.942 4991.55 702.224 4992.26 702.224H5387.51C5388.22 702.224 5388.9 701.942 5389.41 701.44C5389.91 700.938 5390.19 700.256 5390.19 699.546V404.793Z" fill="white"/>
<path d="M6595.54 201.215V399.238C6595.54 400.001 6595.24 400.733 6594.7 401.272C6594.16 401.812 6593.43 402.115 6592.67 402.115H5996.86C5996.12 402.115 5995.42 402.407 5994.9 402.928C5994.37 403.449 5994.08 404.156 5994.08 404.893V699.447C5994.08 700.184 5994.37 700.891 5994.9 701.411C5995.42 701.932 5996.12 702.225 5996.86 702.225H6593.06C6593.39 702.225 6593.71 702.289 6594.01 702.414C6594.31 702.538 6594.59 702.721 6594.82 702.952C6595.05 703.182 6595.23 703.455 6595.35 703.756C6595.48 704.057 6595.54 704.38 6595.54 704.705V1404.14C6595.54 1404.46 6595.48 1404.78 6595.35 1405.08C6595.23 1405.39 6595.05 1405.66 6594.82 1405.89C6594.59 1406.12 6594.31 1406.3 6594.01 1406.43C6593.71 1406.55 6593.39 1406.62 6593.06 1406.62H5794.42C5793.76 1406.62 5793.13 1406.35 5792.67 1405.89C5792.2 1405.42 5791.94 1404.79 5791.94 1404.14V202.554C5791.94 202.199 5792.08 201.858 5792.33 201.607C5792.58 201.356 5792.93 201.215 5793.28 201.215H6595.54ZM6394.59 905.655C6394.59 905.313 6394.46 904.985 6394.21 904.743C6393.97 904.501 6393.64 904.365 6393.3 904.365H5995.37C5995.03 904.365 5994.7 904.501 5994.46 904.743C5994.22 904.985 5994.08 905.313 5994.08 905.655V1203.19C5994.08 1203.53 5994.22 1203.86 5994.46 1204.1C5994.7 1204.34 5995.03 1204.48 5995.37 1204.48H6393.3C6393.64 1204.48 6393.97 1204.34 6394.21 1204.1C6394.46 1203.86 6394.59 1203.53 6394.59 1203.19V905.655Z" fill="white"/>
<path d="M1804.59 905.903L1409.64 905.606C1408.9 905.606 1408.19 905.898 1407.67 906.419C1407.15 906.94 1406.86 907.647 1406.86 908.383V1403.54C1406.86 1404.69 1406.4 1405.78 1405.6 1406.59C1404.79 1407.4 1403.69 1407.86 1402.54 1407.86C1341.43 1407.86 1279.72 1407.86 1217.42 1407.86C1217.12 1407.86 1215.28 1407.97 1211.91 1408.2C1206.42 1408.6 1204.21 1406.38 1205.26 1401.56C1205.63 1399.87 1205.68 1398.27 1205.41 1396.74C1204.95 1393.83 1204.72 1389.68 1204.72 1384.29C1204.72 993.241 1204.72 600.237 1204.72 205.282C1204.72 204.203 1205.15 203.169 1205.91 202.406C1206.67 201.643 1207.71 201.215 1208.79 201.215L2005.49 201.512C2006.16 201.512 2006.81 201.774 2007.28 202.239C2007.76 202.704 2008.02 203.335 2008.02 203.992L2008.32 1405.08C2008.32 1405.82 2008.03 1406.52 2007.51 1407.04C2006.99 1407.56 2006.28 1407.86 2005.54 1407.86H1810.84C1809.93 1407.86 1809.06 1407.5 1808.42 1406.85C1807.78 1406.21 1807.42 1405.34 1807.42 1404.43L1807.12 908.383C1807.12 907.726 1806.86 907.095 1806.38 906.63C1805.91 906.165 1805.26 905.903 1804.59 905.903ZM1807.47 404.645C1807.47 404.303 1807.33 403.975 1807.09 403.733C1806.85 403.491 1806.52 403.355 1806.18 403.355H1408.15C1407.81 403.355 1407.48 403.491 1407.24 403.733C1407 403.975 1406.86 404.303 1406.86 404.645V702.176C1406.86 702.518 1407 702.846 1407.24 703.087C1407.48 703.329 1407.81 703.465 1408.15 703.465H1806.18C1806.52 703.465 1806.85 703.329 1807.09 703.087C1807.33 702.846 1807.47 702.518 1807.47 702.176V404.645Z" fill="white"/>
<path d="M2410.42 406.133L2410.12 700.29C2410.12 701.132 2410.46 701.94 2411.05 702.535C2411.65 703.131 2412.45 703.465 2413.3 703.465H3009.99C3010.74 703.465 3011.46 703.758 3011.99 704.279C3012.52 704.8 3012.82 705.506 3012.82 706.243L3012.52 1405.08C3012.52 1405.74 3012.26 1406.37 3011.78 1406.83C3011.31 1407.3 3010.67 1407.56 3009.99 1407.56L2213.29 1407.86C2212.21 1407.86 2211.17 1407.43 2210.41 1406.66C2209.65 1405.9 2209.22 1404.87 2209.22 1403.79V204.637C2209.22 204.188 2209.31 203.743 2209.48 203.328C2209.65 202.912 2209.91 202.535 2210.22 202.217C2210.54 201.899 2210.92 201.647 2211.33 201.475C2211.75 201.303 2212.19 201.215 2212.64 201.215H3010.04C3010.78 201.215 3011.49 201.507 3012.01 202.028C3012.53 202.549 3012.82 203.256 3012.82 203.992V399.635C3012.82 399.96 3012.76 400.283 3012.63 400.584C3012.51 400.885 3012.33 401.158 3012.1 401.388C3011.87 401.619 3011.59 401.801 3011.29 401.926C3010.99 402.051 3010.67 402.115 3010.34 402.115L2412.95 403.653C2412.27 403.666 2411.63 403.933 2411.16 404.396C2410.68 404.86 2410.42 405.484 2410.42 406.133ZM2811.92 907.887C2811.92 907.588 2811.86 907.291 2811.75 907.014C2811.63 906.737 2811.47 906.486 2811.25 906.274C2811.04 906.062 2810.79 905.894 2810.51 905.779C2810.24 905.665 2809.94 905.606 2809.64 905.606H2412.4C2411.8 905.606 2411.22 905.846 2410.79 906.274C2410.36 906.702 2410.12 907.282 2410.12 907.887V1203.43C2410.12 1204.04 2410.36 1204.62 2410.79 1205.05C2411.22 1205.48 2411.8 1205.72 2412.4 1205.72H2809.64C2809.94 1205.72 2810.24 1205.66 2810.51 1205.54C2810.79 1205.43 2811.04 1205.26 2811.25 1205.05C2811.47 1204.84 2811.63 1204.58 2811.75 1204.31C2811.86 1204.03 2811.92 1203.73 2811.92 1203.43V907.887Z" fill="white"/>
<path d="M4101.35 402.412L3787.01 401.817C3786.34 401.817 3785.69 401.551 3785.22 401.076C3784.74 400.602 3784.48 399.958 3784.48 399.287L3784.18 203.695C3784.18 203.037 3784.44 202.406 3784.91 201.941C3785.37 201.476 3786 201.215 3786.66 201.215H4583.47C4584.61 201.215 4585.71 201.669 4586.52 202.479C4587.33 203.288 4587.78 204.386 4587.78 205.53L4587.48 399.287C4587.48 399.958 4587.23 400.602 4586.77 401.076C4586.32 401.551 4585.7 401.817 4585.05 401.817L4309.69 402.115C4308.79 402.115 4307.92 402.475 4307.28 403.117C4306.63 403.759 4306.27 404.63 4306.27 405.538V1403.84C4306.27 1404.2 4306.2 1404.56 4306.06 1404.9C4305.92 1405.24 4305.72 1405.54 4305.46 1405.8C4305.2 1406.06 4304.89 1406.27 4304.56 1406.4C4304.22 1406.54 4303.86 1406.62 4303.49 1406.62H4107.01C4106.32 1406.62 4105.67 1406.34 4105.18 1405.86C4104.7 1405.38 4104.43 1404.72 4104.43 1404.04L4103.83 404.843C4103.83 404.198 4103.57 403.58 4103.11 403.124C4102.64 402.669 4102.01 402.412 4101.35 402.412Z" fill="white"/>
<path d="M3613.93 703.465H3416.21C3415.33 703.465 3414.62 704.176 3414.62 705.053V902.778C3414.62 903.655 3415.33 904.366 3416.21 904.366H3613.93C3614.81 904.366 3615.52 903.655 3615.52 902.778V705.053C3615.52 704.176 3614.81 703.465 3613.93 703.465Z" fill="#7869AF"/>
</svg>
