<svg width="1300" height="132" viewBox="0 0 1300 132" fill="none" xmlns="http://www.w3.org/2000/svg">
<rect x="80" width="20" height="20" fill="#7867B1"/>
<rect x="80" y="32" width="20" height="20" fill="white"/>
<rect x="60" y="52" width="20" height="20" fill="white"/>
<rect x="80" y="112" width="20" height="20" fill="#7867B1"/>
<rect x="40" y="112" width="20" height="20" fill="#7867B1"/>
<rect y="112" width="20" height="20" fill="#7867B1"/>
<rect x="40" y="72" width="20" height="20" fill="#7867B1"/>
<rect x="60" y="92" width="20" height="20" fill="white"/>
<rect x="100" y="52" width="20" height="20" fill="#7867B1"/>
<rect x="100" y="92" width="20" height="20" fill="#7867B1"/>
<rect x="120" y="112" width="20" height="20" fill="white"/>
<rect x="140" y="92" width="20" height="20" fill="#7867B1"/>
<rect x="160" y="112" width="20" height="20" fill="#7867B1"/>
<rect x="180" y="92" width="20" height="20" fill="#7867B1"/>
<rect x="180" y="112" width="20" height="20" fill="white"/>
<rect x="200" y="112" width="20" height="20" fill="white"/>
<rect x="220" y="112" width="20" height="20" fill="#7867B1"/>
<rect x="240" y="92" width="20" height="20" fill="#7867B1"/>
<rect x="260" y="112" width="20" height="20" fill="white"/>
<rect x="280" y="92" width="20" height="20" fill="#7867B1"/>
<rect x="300" y="112" width="20" height="20" fill="#7867B1"/>
<rect x="320" y="112" width="20" height="20" fill="white"/>
<rect x="340" y="112" width="20" height="20" fill="white"/>
<rect x="360" y="92" width="20" height="20" fill="#FFC804"/>
<rect x="340" y="72" width="20" height="20" fill="#141414"/>
<rect x="320" y="92" width="20" height="20" fill="#7867B1"/>
<rect x="380" y="112" width="20" height="20" fill="white"/>
<rect x="400" y="112" width="20" height="20" fill="#141414"/>
<rect x="400" y="92" width="20" height="20" fill="#7867B1"/>
<rect x="420" y="112" width="20" height="20" fill="#7867B1"/>
<rect x="440" y="92" width="20" height="20" fill="#7867B1"/>
<rect x="480" y="92" width="20" height="20" fill="#7867B1"/>
<rect x="500" y="72" width="20" height="20" fill="#7867B1"/>
<rect x="520" y="72" width="20" height="20" fill="white"/>
<rect x="540" y="92" width="20" height="20" fill="#7867B1"/>
<rect x="560" y="112" width="20" height="20" fill="white"/>
<rect x="580" y="92" width="20" height="20" fill="#141414"/>
<rect x="600" y="72" width="20" height="20" fill="white"/>
<rect x="620" y="92" width="20" height="20" fill="white"/>
<rect x="620" y="112" width="20" height="20" fill="#7867B1"/>
<rect x="640" y="92" width="20" height="20" fill="#7867B1"/>
<rect x="620" y="72" width="20" height="20" fill="#141414"/>
<rect x="640" y="52" width="20" height="20" fill="#7867B1"/>
<rect x="520" y="112" width="20" height="20" fill="#7867B1"/>
<rect x="480" y="52" width="20" height="20" fill="#7867B1"/>
<rect x="500" y="32" width="20" height="20" fill="white"/>
<rect x="460" y="112" width="20" height="20" fill="#141414"/>
<rect x="220" y="73" width="20" height="20" fill="#7867B1"/>
<rect x="220" y="72" width="20" height="20" fill="#7867B1"/>
<rect x="240" y="52" width="20" height="20" fill="#7867B1"/>
<rect x="220" y="32" width="20" height="20" fill="#141414"/>
<rect x="80" y="72" width="20" height="20" fill="#7867B1"/>
<rect width="20" height="20" transform="matrix(-1 0 0 1 1220 32)" fill="white"/>
<rect width="20" height="20" transform="matrix(-1 0 0 1 1240 52)" fill="white"/>
<rect width="20" height="20" transform="matrix(-1 0 0 1 1220 112)" fill="#7867B1"/>
<rect width="20" height="20" transform="matrix(-1 0 0 1 1260 112)" fill="#7867B1"/>
<rect width="20" height="20" transform="matrix(-1 0 0 1 1300 112)" fill="#7867B1"/>
<rect width="20" height="20" transform="matrix(-1 0 0 1 1260 72)" fill="#7867B1"/>
<rect width="20" height="20" transform="matrix(-1 0 0 1 1240 92)" fill="white"/>
<rect width="20" height="20" transform="matrix(-1 0 0 1 1200 52)" fill="#7867B1"/>
<rect width="20" height="20" transform="matrix(-1 0 0 1 1200 92)" fill="#7867B1"/>
<rect width="20" height="20" transform="matrix(-1 0 0 1 1180 112)" fill="white"/>
<rect width="20" height="20" transform="matrix(-1 0 0 1 1160 92)" fill="#7867B1"/>
<rect width="20" height="20" transform="matrix(-1 0 0 1 1140 112)" fill="#7867B1"/>
<rect width="20" height="20" transform="matrix(-1 0 0 1 1120 92)" fill="#7867B1"/>
<rect width="20" height="20" transform="matrix(-1 0 0 1 1120 112)" fill="white"/>
<rect width="20" height="20" transform="matrix(-1 0 0 1 1100 112)" fill="white"/>
<rect width="20" height="20" transform="matrix(-1 0 0 1 1080 112)" fill="#7867B1"/>
<rect width="20" height="20" transform="matrix(-1 0 0 1 1060 92)" fill="#7867B1"/>
<rect width="20" height="20" transform="matrix(-1 0 0 1 1040 112)" fill="white"/>
<rect width="20" height="20" transform="matrix(-1 0 0 1 1020 92)" fill="#7867B1"/>
<rect width="20" height="20" transform="matrix(-1 0 0 1 1000 112)" fill="#7867B1"/>
<rect width="20" height="20" transform="matrix(-1 0 0 1 980 112)" fill="white"/>
<rect width="20" height="20" transform="matrix(-1 0 0 1 960 112)" fill="white"/>
<rect width="20" height="20" transform="matrix(-1 0 0 1 940 92)" fill="#FFC804"/>
<rect width="20" height="20" transform="matrix(-1 0 0 1 960 72)" fill="white"/>
<rect width="20" height="20" transform="matrix(-1 0 0 1 980 92)" fill="#7867B1"/>
<rect width="20" height="20" transform="matrix(-1 0 0 1 920 112)" fill="white"/>
<rect width="20" height="20" transform="matrix(-1 0 0 1 900 112)" fill="white"/>
<rect width="20" height="20" transform="matrix(-1 0 0 1 900 92)" fill="#7867B1"/>
<rect width="20" height="20" transform="matrix(-1 0 0 1 880 112)" fill="#7867B1"/>
<rect width="20" height="20" transform="matrix(-1 0 0 1 860 92)" fill="#7867B1"/>
<rect width="20" height="20" transform="matrix(-1 0 0 1 820 92)" fill="#7867B1"/>
<rect width="20" height="20" transform="matrix(-1 0 0 1 800 72)" fill="#7867B1"/>
<rect width="20" height="20" transform="matrix(-1 0 0 1 780 72)" fill="white"/>
<rect width="20" height="20" transform="matrix(-1 0 0 1 760 92)" fill="#7867B1"/>
<rect width="20" height="20" transform="matrix(-1 0 0 1 740 112)" fill="white"/>
<rect width="20" height="20" transform="matrix(-1 0 0 1 720 92)" fill="white"/>
<rect width="20" height="20" transform="matrix(-1 0 0 1 700 72)" fill="white"/>
<rect width="20" height="20" transform="matrix(-1 0 0 1 680 92)" fill="white"/>
<rect width="20" height="20" transform="matrix(-1 0 0 1 680 112)" fill="#7867B1"/>
<rect width="20" height="20" transform="matrix(-1 0 0 1 780 112)" fill="#7867B1"/>
<rect width="20" height="20" transform="matrix(-1 0 0 1 820 52)" fill="#7867B1"/>
<rect width="20" height="20" transform="matrix(-1 0 0 1 800 32)" fill="white"/>
<rect width="20" height="20" transform="matrix(-1 0 0 1 840 112)" fill="white"/>
<rect width="20" height="20" transform="matrix(-1 0 0 1 1080 73)" fill="#7867B1"/>
<rect width="20" height="20" transform="matrix(-1 0 0 1 1080 72)" fill="#7867B1"/>
<rect width="20" height="20" transform="matrix(-1 0 0 1 1060 52)" fill="#7867B1"/>
<rect width="20" height="20" transform="matrix(-1 0 0 1 1080 32)" fill="white"/>
<rect width="20" height="20" transform="matrix(-1 0 0 1 1220 72)" fill="#7867B1"/>
</svg>
